<svg xmlns="http://www.w3.org/2000/svg" xmlns:xlink="http://www.w3.org/1999/xlink" viewBox="390 640 800 220" preserveAspectRatio="xMidYMid meet" version="1.0">
    <defs>
        <linearGradient id="logoGradient" x1="0%" y1="0%" x2="100%" y2="0%">
            <stop offset="0%" stop-color="#E4C33C" />
            <stop offset="100%" stop-color="#F4D95A" />
        </linearGradient>

        <clipPath id="458b7898f9">
            <path d="M 1116 687 L 1150.324219 687 L 1150.324219 721 L 1116 721 Z M 1116 687 " clip-rule="nonzero"/>
        </clipPath>
    </defs>

    <path fill="url(#logoGradient)" d="M 1128.191406 762.824219 C 1120.28125 779.027344 1105.5625 789.902344 1090.621094 790.503906 C 1076.339844 791.109375 1067.554688 785.726562 1062.71875 781.058594 C 1054.753906 773.480469 1050.800781 762.164062 1050.800781 747.5 C 1050.800781 736.734375 1042.011719 727.945312 1031.191406 727.945312 C 1019.21875 727.945312 1009.71875 738.765625 1011.914062 751.070312 C 1013.289062 758.757812 1019.328125 765.019531 1026.964844 766.667969 C 1029.378906 767.164062 1031.796875 767.273438 1034.105469 766.886719 C 1039.652344 766.0625 1045.035156 769.304688 1047.394531 774.359375 C 1047.449219 774.46875 1047.449219 774.523438 1047.503906 774.578125 C 1051.351562 782.652344 1046.351562 792.261719 1037.507812 793.472656 C 1032.070312 794.1875 1026.414062 793.964844 1020.8125 792.757812 C 1002.082031 788.582031 987.691406 772.710938 985.222656 753.652344 C 981.484375 725.363281 1003.511719 701.144531 1031.136719 701.144531 C 1056.679688 701.144531 1077.496094 721.960938 1077.496094 747.5 C 1077.496094 754.308594 1078.8125 759.472656 1081.175781 761.726562 C 1082.769531 763.207031 1085.515625 763.921875 1089.46875 763.757812 C 1092.929688 763.59375 1098.859375 761.945312 1105.285156 751.785156 C 1112.703125 740.085938 1116.328125 697.574219 1078.539062 673.1875 C 1060.6875 661.652344 1038.222656 658.960938 1018.175781 665.992188 C 982.199219 678.679688 956.824219 713.941406 959.296875 754.804688 C 961.933594 798.691406 997.304688 834.445312 1041.1875 837.464844 C 1092.820312 841.035156 1135.769531 800.226562 1135.769531 749.367188 C 1135.769531 746.234375 1135.605469 743.160156 1135.277344 740.140625 C 1133.792969 750.464844 1130.441406 758.15625 1128.191406 762.824219 Z M 1128.191406 762.824219 " fill-opacity="1" fill-rule="nonzero"/>

    <g clip-path="url(#458b7898f9)">
        <path fill="url(#logoGradient)" d="M 1150.160156 704.21875 C 1150.160156 704.765625 1150.132812 705.316406 1150.078125 705.859375 C 1150.027344 706.40625 1149.945312 706.949219 1149.839844 707.488281 C 1149.730469 708.023438 1149.597656 708.554688 1149.4375 709.082031 C 1149.28125 709.605469 1149.09375 710.121094 1148.886719 710.628906 C 1148.675781 711.136719 1148.441406 711.632812 1148.183594 712.117188 C 1147.921875 712.597656 1147.640625 713.070312 1147.335938 713.527344 C 1147.03125 713.980469 1146.707031 714.421875 1146.359375 714.847656 C 1146.011719 715.269531 1145.640625 715.675781 1145.253906 716.0625 C 1144.867188 716.453125 1144.460938 716.820312 1144.035156 717.167969 C 1143.613281 717.515625 1143.171875 717.84375 1142.714844 718.148438 C 1142.257812 718.453125 1141.789062 718.734375 1141.304688 718.992188 C 1140.820312 719.25 1140.324219 719.484375 1139.820312 719.695312 C 1139.3125 719.90625 1138.796875 720.089844 1138.269531 720.25 C 1137.746094 720.410156 1137.214844 720.542969 1136.675781 720.648438 C 1136.136719 720.757812 1135.597656 720.835938 1135.050781 720.890625 C 1134.503906 720.945312 1133.957031 720.972656 1133.410156 720.972656 C 1132.859375 720.972656 1132.3125 720.945312 1131.765625 720.890625 C 1131.21875 720.835938 1130.679688 720.757812 1130.140625 720.648438 C 1129.601562 720.542969 1129.070312 720.410156 1128.546875 720.25 C 1128.019531 720.089844 1127.503906 719.90625 1126.996094 719.695312 C 1126.492188 719.484375 1125.996094 719.25 1125.511719 718.992188 C 1125.027344 718.734375 1124.558594 718.453125 1124.101562 718.148438 C 1123.644531 717.84375 1123.203125 717.515625 1122.78125 717.167969 C 1122.355469 716.820312 1121.949219 716.453125 1121.5625 716.0625 C 1121.175781 715.675781 1120.808594 715.269531 1120.457031 714.847656 C 1120.109375 714.421875 1119.785156 713.980469 1119.480469 713.527344 C 1119.175781 713.070312 1118.894531 712.597656 1118.632812 712.117188 C 1118.375 711.632812 1118.140625 711.136719 1117.929688 710.628906 C 1117.722656 710.121094 1117.535156 709.605469 1117.378906 709.082031 C 1117.21875 708.554688 1117.085938 708.023438 1116.976562 707.488281 C 1116.871094 706.949219 1116.789062 706.40625 1116.738281 705.859375 C 1116.683594 705.316406 1116.65625 704.765625 1116.65625 704.21875 C 1116.65625 703.671875 1116.683594 703.121094 1116.738281 702.578125 C 1116.789062 702.03125 1116.871094 701.488281 1116.976562 700.949219 C 1117.085938 700.414062 1117.21875 699.878906 1117.378906 699.355469 C 1117.535156 698.832031 1117.722656 698.316406 1117.929688 697.808594 C 1118.140625 697.300781 1118.375 696.804688 1118.632812 696.320312 C 1118.894531 695.835938 1119.175781 695.367188 1119.480469 694.910156 C 1119.785156 694.457031 1120.109375 694.015625 1120.457031 693.589844 C 1120.808594 693.167969 1121.175781 692.761719 1121.5625 692.375 C 1121.949219 691.984375 1122.355469 691.617188 1122.78125 691.269531 C 1123.203125 690.921875 1123.644531 690.59375 1124.101562 690.289062 C 1124.558594 689.984375 1125.027344 689.703125 1125.511719 689.445312 C 1125.996094 689.1875 1126.492188 688.953125 1126.996094 688.742188 C 1127.503906 688.53125 1128.019531 688.347656 1128.546875 688.1875 C 1129.070312 688.027344 1129.601562 687.894531 1130.140625 687.789062 C 1130.679688 687.679688 1131.21875 687.601562 1131.765625 687.546875 C 1132.3125 687.492188 1132.859375 687.464844 1133.410156 687.464844 C 1133.957031 687.464844 1134.503906 687.492188 1135.050781 687.546875 C 1135.597656 687.601562 1136.136719 687.679688 1136.675781 687.789062 C 1137.214844 687.894531 1137.746094 688.027344 1138.269531 688.1875 C 1138.796875 688.347656 1139.3125 688.53125 1139.820312 688.742188 C 1140.324219 688.953125 1140.820312 689.1875 1141.304688 689.445312 C 1141.789062 689.703125 1142.257812 689.984375 1142.714844 690.289062 C 1143.171875 690.59375 1143.613281 690.921875 1144.035156 691.269531 C 1144.460938 691.617188 1144.867188 691.984375 1145.253906 692.375 C 1145.640625 692.761719 1146.011719 693.167969 1146.359375 693.589844 C 1146.707031 694.015625 1147.03125 694.457031 1147.335938 694.910156 C 1147.640625 695.367188 1147.921875 695.835938 1148.183594 696.320312 C 1148.441406 696.804688 1148.675781 697.300781 1148.886719 697.808594 C 1149.09375 698.316406 1149.28125 698.832031 1149.4375 699.355469 C 1149.597656 699.878906 1149.730469 700.414062 1149.839844 700.949219 C 1149.945312 701.488281 1150.027344 702.03125 1150.078125 702.578125 C 1150.132812 703.121094 1150.160156 703.671875 1150.160156 704.21875 Z M 1150.160156 704.21875 " fill-opacity="1" fill-rule="nonzero"/>
    </g>

    <g fill="#1a1a1a" fill-opacity="1">
        <g transform="translate(406.121073, 801.956911)"><g><path d="M 51.203125 -38.25 L 40.0625 -26.359375 L 40.0625 0 L 10.546875 0 L 10.546875 -105.421875 L 40.0625 -105.421875 L 40.0625 -61.59375 L 80.875 -105.421875 L 113.703125 -105.421875 L 70.640625 -58.734375 L 115.96875 0 L 81.328125 0 Z M 51.203125 -38.25 "/></g></g>
        <g transform="translate(513.346001, 801.956911)"><g><path d="M 9.1875 -111.75 L 37.796875 -111.75 L 37.796875 0 L 9.1875 0 Z M 9.1875 -111.75 "/></g></g>
        <g transform="translate(554.458576, 801.956911)"><g><path d="M 43.984375 -82.984375 C 57.535156 -82.984375 67.875 -79.894531 75 -73.71875 C 82.132812 -67.539062 85.703125 -58.078125 85.703125 -45.328125 L 85.703125 0 L 59.03125 0 L 59.03125 -10.546875 C 54.914062 -2.609375 46.882812 1.359375 34.9375 1.359375 C 28.613281 1.359375 23.140625 0.253906 18.515625 -1.953125 C 13.898438 -4.160156 10.410156 -7.144531 8.046875 -10.90625 C 5.691406 -14.675781 4.515625 -18.972656 4.515625 -23.796875 C 4.515625 -31.523438 7.476562 -37.519531 13.40625 -41.78125 C 19.332031 -46.050781 28.46875 -48.1875 40.8125 -48.1875 L 57.078125 -48.1875 C 56.578125 -56.820312 50.804688 -61.140625 39.765625 -61.140625 C 35.847656 -61.140625 31.878906 -60.507812 27.859375 -59.25 C 23.847656 -58 20.4375 -56.269531 17.625 -54.0625 L 7.984375 -73.5 C 12.503906 -76.507812 18 -78.84375 24.46875 -80.5 C 30.945312 -82.15625 37.453125 -82.984375 43.984375 -82.984375 Z M 42.921875 -16.71875 C 46.234375 -16.71875 49.144531 -17.519531 51.65625 -19.125 C 54.164062 -20.726562 55.972656 -23.085938 57.078125 -26.203125 L 57.078125 -33.28125 L 44.734375 -33.28125 C 36.398438 -33.28125 32.234375 -30.519531 32.234375 -25 C 32.234375 -22.488281 33.1875 -20.476562 35.09375 -18.96875 C 37 -17.46875 39.609375 -16.71875 42.921875 -16.71875 Z M 42.921875 -16.71875 "/></g></g>
        <g transform="translate(643.009403, 801.956911)"><g><path d="M 36.453125 -71.84375 C 39.359375 -75.550781 43.144531 -78.332031 47.8125 -80.1875 C 52.488281 -82.050781 57.835938 -82.984375 63.859375 -82.984375 L 63.859375 -57.234375 C 61.242188 -57.535156 59.082031 -57.6875 57.375 -57.6875 C 51.25 -57.6875 46.453125 -56.03125 42.984375 -52.71875 C 39.523438 -49.40625 37.796875 -44.332031 37.796875 -37.5 L 37.796875 0 L 9.1875 0 L 9.1875 -81.625 L 36.453125 -81.625 Z M 36.453125 -71.84375 "/></g></g>
        <g transform="translate(703.69966, 801.956911)"><g><path d="M 9.1875 -81.625 L 37.796875 -81.625 L 37.796875 0 L 9.1875 0 Z M 23.484375 -90.671875 C 18.265625 -90.671875 14.046875 -92.125 10.828125 -95.03125 C 7.617188 -97.945312 6.015625 -101.5625 6.015625 -105.875 C 6.015625 -110.195312 7.617188 -113.8125 10.828125 -116.71875 C 14.046875 -119.632812 18.265625 -121.09375 23.484375 -121.09375 C 28.710938 -121.09375 32.929688 -119.710938 36.140625 -116.953125 C 39.347656 -114.191406 40.953125 -110.648438 40.953125 -106.328125 C 40.953125 -101.804688 39.347656 -98.066406 36.140625 -95.109375 C 32.929688 -92.148438 28.710938 -90.671875 23.484375 -90.671875 Z M 23.484375 -90.671875 "/></g></g>
        <g transform="translate(744.812235, 801.956911)"><g><path d="M 40.359375 -78.625 L 59.796875 -78.625 L 59.796875 -57.234375 L 41.109375 -57.234375 L 41.109375 0 L 12.5 0 L 12.5 -57.234375 L 0.609375 -57.234375 L 0.609375 -78.625 L 12.5 -78.625 L 12.5 -80.734375 C 12.5 -90.671875 15.484375 -98.550781 21.453125 -104.375 C 27.429688 -110.195312 35.789062 -113.109375 46.53125 -113.109375 C 50.144531 -113.109375 53.660156 -112.753906 57.078125 -112.046875 C 60.492188 -111.347656 63.304688 -110.296875 65.515625 -108.890625 L 58.4375 -88.703125 C 55.625 -90.316406 52.765625 -91.125 49.859375 -91.125 C 46.835938 -91.125 44.5 -90.21875 42.84375 -88.40625 C 41.1875 -86.601562 40.359375 -83.941406 40.359375 -80.421875 Z M 40.359375 -78.625 "/></g></g>
        <g transform="translate(799.93041, 801.956911)"><g><path d="M 43.984375 -82.984375 C 57.535156 -82.984375 67.875 -79.894531 75 -73.71875 C 82.132812 -67.539062 85.703125 -58.078125 85.703125 -45.328125 L 85.703125 0 L 59.03125 0 L 59.03125 -10.546875 C 54.914062 -2.609375 46.882812 1.359375 34.9375 1.359375 C 28.613281 1.359375 23.140625 0.253906 18.515625 -1.953125 C 13.898438 -4.160156 10.410156 -7.144531 8.046875 -10.90625 C 5.691406 -14.675781 4.515625 -18.972656 4.515625 -23.796875 C 4.515625 -31.523438 7.476562 -37.519531 13.40625 -41.78125 C 19.332031 -46.050781 28.46875 -48.1875 40.8125 -48.1875 L 57.078125 -48.1875 C 56.578125 -56.820312 50.804688 -61.140625 39.765625 -61.140625 C 35.847656 -61.140625 31.878906 -60.507812 27.859375 -59.25 C 23.847656 -58 20.4375 -56.269531 17.625 -54.0625 L 7.984375 -73.5 C 12.503906 -76.507812 18 -78.84375 24.46875 -80.5 C 30.945312 -82.15625 37.453125 -82.984375 43.984375 -82.984375 Z M 42.921875 -16.71875 C 46.234375 -16.71875 49.144531 -17.519531 51.65625 -19.125 C 54.164062 -20.726562 55.972656 -23.085938 57.078125 -26.203125 L 57.078125 -33.28125 L 44.734375 -33.28125 C 36.398438 -33.28125 32.234375 -30.519531 32.234375 -25 C 32.234375 -22.488281 33.1875 -20.476562 35.09375 -18.96875 C 37 -17.46875 39.609375 -16.71875 42.921875 -16.71875 Z M 42.921875 -16.71875 "/></g></g>
        <g transform="translate(888.481214, 801.956911)"><g><path d="M 9.1875 -81.625 L 37.796875 -81.625 L 37.796875 0 L 9.1875 0 Z M 23.484375 -90.671875 C 18.265625 -90.671875 14.046875 -92.125 10.828125 -95.03125 C 7.617188 -97.945312 6.015625 -101.5625 6.015625 -105.875 C 6.015625 -110.195312 7.617188 -113.8125 10.828125 -116.71875 C 14.046875 -119.632812 18.265625 -121.09375 23.484375 -121.09375 C 28.710938 -121.09375 32.929688 -119.710938 36.140625 -116.953125 C 39.347656 -114.191406 40.953125 -110.648438 40.953125 -106.328125 C 40.953125 -101.804688 39.347656 -98.066406 36.140625 -95.109375 C 32.929688 -92.148438 28.710938 -90.671875 23.484375 -90.671875 Z M 23.484375 -90.671875 "/></g></g>
    </g>
</svg>
