<svg xmlns="http://www.w3.org/2000/svg" xmlns:xlink="http://www.w3.org/1999/xlink" width="2000" zoomAndPan="magnify" viewBox="0 0 1500 1499.999933" height="2000" preserveAspectRatio="xMidYMid meet" version="1.0"><defs><clipPath id="20001f0404"><path d="M 1111 392 L 1303.652344 392 L 1303.652344 584 L 1111 584 Z M 1111 392 " clip-rule="nonzero"/></clipPath></defs><path fill="#ead159" d="M 1177.585938 823.40625 C 1132.3125 916.15625 1048.050781 978.40625 962.535156 981.867188 C 880.789062 985.324219 830.484375 954.511719 802.820312 927.789062 C 757.230469 884.402344 734.59375 819.632812 734.59375 735.6875 C 734.59375 674.066406 684.289062 623.761719 622.351562 623.761719 C 553.8125 623.761719 499.421875 685.699219 511.996094 756.125 C 519.855469 800.140625 554.441406 835.984375 598.144531 845.414062 C 611.976562 848.246094 625.808594 848.875 639.015625 846.671875 C 670.769531 841.957031 701.582031 860.507812 715.101562 889.429688 C 715.414062 890.058594 715.414062 890.375 715.730469 890.6875 C 737.738281 936.90625 709.125 991.925781 658.507812 998.84375 C 627.382812 1002.929688 595 1001.671875 562.929688 994.757812 C 455.71875 970.863281 373.34375 880 359.199219 770.902344 C 337.816406 608.984375 463.894531 470.332031 622.039062 470.332031 C 768.234375 470.332031 887.394531 589.492188 887.394531 735.6875 C 887.394531 774.675781 894.9375 804.226562 908.457031 817.117188 C 917.574219 825.609375 933.296875 829.695312 955.933594 828.75 C 975.738281 827.808594 1009.695312 818.375 1046.480469 760.210938 C 1088.925781 693.246094 1109.675781 449.898438 893.367188 310.304688 C 791.1875 244.277344 662.59375 228.871094 547.839844 269.117188 C 341.90625 341.742188 196.652344 543.589844 210.800781 777.503906 C 225.890625 1028.710938 428.367188 1233.386719 679.574219 1250.679688 C 975.109375 1271.117188 1220.972656 1037.515625 1220.972656 746.378906 C 1220.972656 728.457031 1220.03125 710.851562 1218.144531 693.558594 C 1209.65625 752.667969 1190.476562 796.683594 1177.585938 823.40625 Z M 1177.585938 823.40625 " fill-opacity="1" fill-rule="nonzero"/><g clip-path="url(#20001f0404)"><path fill="#ead159" d="M 1303.347656 487.941406 C 1303.347656 489.507812 1303.308594 491.078125 1303.230469 492.644531 C 1303.152344 494.210938 1303.039062 495.777344 1302.886719 497.339844 C 1302.730469 498.902344 1302.539062 500.457031 1302.308594 502.011719 C 1302.078125 503.5625 1301.808594 505.109375 1301.503906 506.648438 C 1301.199219 508.1875 1300.855469 509.71875 1300.472656 511.238281 C 1300.089844 512.761719 1299.671875 514.273438 1299.21875 515.777344 C 1298.761719 517.277344 1298.269531 518.769531 1297.742188 520.246094 C 1297.210938 521.722656 1296.648438 523.1875 1296.046875 524.636719 C 1295.445312 526.085938 1294.8125 527.519531 1294.140625 528.9375 C 1293.46875 530.359375 1292.761719 531.757812 1292.023438 533.144531 C 1291.285156 534.527344 1290.511719 535.894531 1289.703125 537.238281 C 1288.898438 538.585938 1288.058594 539.910156 1287.1875 541.214844 C 1286.3125 542.519531 1285.410156 543.800781 1284.476562 545.0625 C 1283.539062 546.324219 1282.574219 547.558594 1281.578125 548.773438 C 1280.585938 549.988281 1279.558594 551.175781 1278.503906 552.335938 C 1277.453125 553.5 1276.371094 554.636719 1275.261719 555.746094 C 1274.152344 556.855469 1273.015625 557.9375 1271.851562 558.992188 C 1270.6875 560.046875 1269.5 561.070312 1268.289062 562.066406 C 1267.074219 563.0625 1265.835938 564.027344 1264.578125 564.960938 C 1263.316406 565.898438 1262.035156 566.800781 1260.730469 567.671875 C 1259.425781 568.542969 1258.097656 569.382812 1256.753906 570.191406 C 1255.40625 570.996094 1254.042969 571.769531 1252.65625 572.507812 C 1251.273438 573.25 1249.871094 573.953125 1248.453125 574.625 C 1247.035156 575.296875 1245.601562 575.933594 1244.152344 576.535156 C 1242.699219 577.132812 1241.238281 577.699219 1239.757812 578.226562 C 1238.28125 578.753906 1236.792969 579.246094 1235.289062 579.703125 C 1233.789062 580.160156 1232.277344 580.578125 1230.753906 580.957031 C 1229.230469 581.339844 1227.699219 581.683594 1226.160156 581.988281 C 1224.621094 582.296875 1223.078125 582.5625 1221.523438 582.792969 C 1219.972656 583.023438 1218.414062 583.21875 1216.851562 583.371094 C 1215.292969 583.523438 1213.726562 583.640625 1212.160156 583.71875 C 1210.59375 583.792969 1209.023438 583.832031 1207.453125 583.832031 C 1205.882812 583.832031 1204.316406 583.792969 1202.75 583.71875 C 1201.179688 583.640625 1199.617188 583.523438 1198.054688 583.371094 C 1196.492188 583.21875 1194.9375 583.023438 1193.382812 582.792969 C 1191.832031 582.5625 1190.285156 582.296875 1188.746094 581.988281 C 1187.207031 581.683594 1185.675781 581.339844 1184.152344 580.957031 C 1182.632812 580.578125 1181.121094 580.160156 1179.617188 579.703125 C 1178.117188 579.246094 1176.625 578.753906 1175.148438 578.226562 C 1173.671875 577.699219 1172.207031 577.132812 1170.757812 576.535156 C 1169.308594 575.933594 1167.875 575.296875 1166.453125 574.625 C 1165.035156 573.953125 1163.632812 573.25 1162.25 572.507812 C 1160.867188 571.769531 1159.5 570.996094 1158.15625 570.191406 C 1156.808594 569.382812 1155.484375 568.542969 1154.179688 567.671875 C 1152.875 566.800781 1151.589844 565.898438 1150.332031 564.960938 C 1149.070312 564.027344 1147.832031 563.0625 1146.621094 562.066406 C 1145.40625 561.070312 1144.21875 560.046875 1143.054688 558.992188 C 1141.894531 557.9375 1140.757812 556.855469 1139.648438 555.746094 C 1138.539062 554.636719 1137.457031 553.5 1136.402344 552.335938 C 1135.347656 551.175781 1134.324219 549.988281 1133.328125 548.773438 C 1132.332031 547.558594 1131.367188 546.324219 1130.433594 545.0625 C 1129.496094 543.800781 1128.59375 542.519531 1127.722656 541.214844 C 1126.851562 539.910156 1126.011719 538.585938 1125.203125 537.238281 C 1124.398438 535.894531 1123.625 534.527344 1122.882812 533.144531 C 1122.144531 531.757812 1121.4375 530.359375 1120.769531 528.9375 C 1120.097656 527.519531 1119.460938 526.085938 1118.859375 524.636719 C 1118.261719 523.1875 1117.695312 521.722656 1117.167969 520.246094 C 1116.636719 518.769531 1116.144531 517.277344 1115.691406 515.777344 C 1115.234375 514.273438 1114.816406 512.761719 1114.433594 511.238281 C 1114.054688 509.71875 1113.710938 508.1875 1113.402344 506.648438 C 1113.097656 505.109375 1112.828125 503.5625 1112.597656 502.011719 C 1112.367188 500.457031 1112.175781 498.902344 1112.023438 497.339844 C 1111.871094 495.777344 1111.753906 494.210938 1111.675781 492.644531 C 1111.601562 491.078125 1111.5625 489.507812 1111.5625 487.941406 C 1111.5625 486.371094 1111.601562 484.800781 1111.675781 483.234375 C 1111.753906 481.667969 1111.871094 480.101562 1112.023438 478.539062 C 1112.175781 476.980469 1112.367188 475.421875 1112.597656 473.871094 C 1112.828125 472.316406 1113.097656 470.769531 1113.402344 469.230469 C 1113.710938 467.691406 1114.054688 466.164062 1114.433594 464.640625 C 1114.816406 463.117188 1115.234375 461.605469 1115.691406 460.105469 C 1116.144531 458.601562 1116.636719 457.113281 1117.167969 455.632812 C 1117.695312 454.15625 1118.261719 452.695312 1118.859375 451.242188 C 1119.460938 449.792969 1120.097656 448.359375 1120.769531 446.941406 C 1121.4375 445.523438 1122.144531 444.121094 1122.882812 442.738281 C 1123.625 441.351562 1124.398438 439.988281 1125.203125 438.640625 C 1126.011719 437.296875 1126.851562 435.96875 1127.722656 434.664062 C 1128.59375 433.359375 1129.496094 432.078125 1130.433594 430.816406 C 1131.367188 429.554688 1132.332031 428.320312 1133.328125 427.105469 C 1134.324219 425.894531 1135.347656 424.707031 1136.402344 423.542969 C 1137.457031 422.378906 1138.539062 421.242188 1139.648438 420.132812 C 1140.757812 419.023438 1141.894531 417.941406 1143.054688 416.886719 C 1144.21875 415.835938 1145.40625 414.808594 1146.621094 413.8125 C 1147.832031 412.820312 1149.070312 411.851562 1150.332031 410.917969 C 1151.589844 409.984375 1152.875 409.082031 1154.179688 408.207031 C 1155.484375 407.335938 1156.808594 406.496094 1158.15625 405.691406 C 1159.5 404.882812 1160.867188 404.109375 1162.25 403.371094 C 1163.632812 402.628906 1165.035156 401.925781 1166.453125 401.253906 C 1167.875 400.582031 1169.308594 399.949219 1170.757812 399.347656 C 1172.207031 398.746094 1173.671875 398.179688 1175.148438 397.652344 C 1176.625 397.125 1178.117188 396.632812 1179.617188 396.175781 C 1181.121094 395.722656 1182.632812 395.300781 1184.152344 394.921875 C 1185.675781 394.539062 1187.207031 394.195312 1188.746094 393.890625 C 1190.285156 393.582031 1191.832031 393.316406 1193.382812 393.085938 C 1194.9375 392.855469 1196.492188 392.664062 1198.054688 392.507812 C 1199.617188 392.355469 1201.179688 392.238281 1202.75 392.164062 C 1204.316406 392.085938 1205.882812 392.046875 1207.453125 392.046875 C 1209.023438 392.046875 1210.59375 392.085938 1212.160156 392.164062 C 1213.726562 392.238281 1215.292969 392.355469 1216.851562 392.507812 C 1218.414062 392.664062 1219.972656 392.855469 1221.523438 393.085938 C 1223.078125 393.316406 1224.621094 393.582031 1226.160156 393.890625 C 1227.699219 394.195312 1229.230469 394.539062 1230.753906 394.921875 C 1232.277344 395.300781 1233.789062 395.722656 1235.289062 396.175781 C 1236.792969 396.632812 1238.28125 397.125 1239.757812 397.652344 C 1241.238281 398.179688 1242.699219 398.746094 1244.152344 399.347656 C 1245.601562 399.949219 1247.035156 400.582031 1248.453125 401.253906 C 1249.871094 401.925781 1251.273438 402.628906 1252.65625 403.371094 C 1254.042969 404.109375 1255.40625 404.882812 1256.753906 405.691406 C 1258.097656 406.496094 1259.425781 407.335938 1260.730469 408.207031 C 1262.035156 409.078125 1263.316406 409.984375 1264.578125 410.917969 C 1265.835938 411.851562 1267.074219 412.820312 1268.289062 413.8125 C 1269.5 414.808594 1270.6875 415.835938 1271.851562 416.886719 C 1273.015625 417.941406 1274.152344 419.023438 1275.261719 420.132812 C 1276.371094 421.242188 1277.453125 422.378906 1278.503906 423.542969 C 1279.558594 424.707031 1280.585938 425.894531 1281.578125 427.105469 C 1282.574219 428.320312 1283.539062 429.554688 1284.476562 430.816406 C 1285.410156 432.078125 1286.3125 433.359375 1287.1875 434.664062 C 1288.058594 435.96875 1288.898438 437.296875 1289.703125 438.640625 C 1290.511719 439.988281 1291.285156 441.351562 1292.023438 442.738281 C 1292.761719 444.121094 1293.46875 445.523438 1294.140625 446.941406 C 1294.8125 448.359375 1295.445312 449.792969 1296.046875 451.242188 C 1296.648438 452.695312 1297.210938 454.15625 1297.742188 455.632812 C 1298.269531 457.113281 1298.761719 458.601562 1299.21875 460.105469 C 1299.671875 461.605469 1300.089844 463.117188 1300.472656 464.640625 C 1300.855469 466.164062 1301.199219 467.691406 1301.503906 469.230469 C 1301.808594 470.769531 1302.078125 472.316406 1302.308594 473.871094 C 1302.539062 475.421875 1302.730469 476.980469 1302.886719 478.539062 C 1303.039062 480.101562 1303.152344 481.667969 1303.230469 483.234375 C 1303.308594 484.800781 1303.347656 486.371094 1303.347656 487.941406 Z M 1303.347656 487.941406 " fill-opacity="1" fill-rule="nonzero"/></g></svg>